<svg xmlns="http://www.w3.org/2000/svg" viewBox="0 0 964.49 392.42"><defs><style>.cls-1{font-size:215.57px;fill:#fff;font-family:FamiarPERSONALUSEONLY-MediumItalic, Famiar PERSONAL USE ONLY;font-weight:500;}.cls-1,.cls-3{font-style:italic;}.cls-2{fill:#1a8829;}.cls-3{font-size:44.69px;fill:#939393;font-family:FamiarPERSONALUSEONLY-RegularItalic, Famiar PERSONAL USE ONLY;}.cls-4{letter-spacing:0em;}.cls-5{letter-spacing:-0.01em;}.cls-6{letter-spacing:-0.01em;}.cls-7{letter-spacing:0em;}.cls-8{letter-spacing:-0.02em;}.cls-9{letter-spacing:0em;}.cls-10{fill:#1a6329;}.cls-11{fill:#f14823;}.cls-12{fill:#f16123;}.cls-13{fill:#f7744f;}.cls-14{fill:#f7a14f;}</style></defs><g id="Layer_2" data-name="Layer 2"><g id="Layer_1-2" data-name="Layer 1"><text class="cls-1" transform="translate(163.61 330.12)">equi<tspan class="cls-2" x="427.25" y="0">rise</tspan></text><text class="cls-3" transform="translate(402.37 377.24)"><tspan class="cls-4">D</tspan><tspan class="cls-5" x="31.69" y="0">e</tspan><tspan class="cls-6" x="56.45" y="0">v</tspan><tspan class="cls-7" x="78.44" y="0">elopment </tspan><tspan class="cls-8" x="284.61" y="0">C</tspan><tspan class="cls-9" x="310.13" y="0">onsulting l</tspan><tspan class="cls-5" x="520.15" y="0">t</tspan><tspan x="535.79" y="0">d</tspan></text><path class="cls-10" d="M17.06,135.32h0l-.59.61a94.74,94.74,0,0,0-9,10.45A57.72,57.72,0,0,1,2.13,134.3,47.46,47.46,0,0,1,0,120.3,51.1,51.1,0,0,1,7.43,94.36a46.56,46.56,0,0,0-1.07,9.91,48.26,48.26,0,0,0,3.14,17A62.69,62.69,0,0,0,17.06,135.32Z"/><path class="cls-2" d="M291.65,0V32.56C155.84,36.94,44.16,73.13,9.5,121.24a48.26,48.26,0,0,1-3.14-17,46.56,46.56,0,0,1,1.07-9.91C36.94,43.61,151.24,4.8,291.65,0Z"/><path class="cls-11" d="M19.67,196.31v.08c-.65.61-1.3,1.23-1.92,1.84a99.5,99.5,0,0,0-9.24,10.38A57.52,57.52,0,0,1,3,196.23a47,47,0,0,1-.87-24.79,55.3,55.3,0,0,1,6.16-15.16,47.27,47.27,0,0,0-1.06,9.91,48.22,48.22,0,0,0,3.14,17A58.34,58.34,0,0,0,12.89,189,95.44,95.44,0,0,0,19.67,196.31Z"/><path class="cls-12" d="M291.65,62V94.51C182.24,98.15,88.59,122.43,38.4,156.94a141.84,141.84,0,0,0-13.3,10.27,96.24,96.24,0,0,0-14.77,15.95,48.22,48.22,0,0,1-3.14-17,47.27,47.27,0,0,1,1.06-9.91c.87-1.48,1.8-3,2.81-4.42A85.77,85.77,0,0,1,20.8,140.2C62.81,97.6,166.86,66.34,291.65,62Z"/><path class="cls-13" d="M165.31,350.82v.48C77.42,332.79,15,299.18,3,259.81a64.14,64.14,0,0,1,7.36-13.07c12.94,34.66,65,64.6,138.8,83.31A56.06,56.06,0,0,0,165.31,350.82Z"/><path class="cls-14" d="M291.65,125.53V158.1c-73.27,2.43-139.48,14.13-190.29,32Q89,194.39,77.89,199.19a250.38,250.38,0,0,0-32.47,16.74q-2.79,1.74-5.43,3.51a148.46,148.46,0,0,0-13.52,10.17,98,98,0,0,0-16.06,17l-.08.1A64.68,64.68,0,0,0,3,259.81a47,47,0,0,1-.28-27,56.76,56.76,0,0,1,5.57-12.91c1.15-2,2.42-3.91,3.81-5.84a89.46,89.46,0,0,1,10-11.44c.71-.71,1.44-1.4,2.18-2.09a149.57,149.57,0,0,1,22.89-17.18q8.09-5,17.39-9.71C117.34,147,198.75,128.8,291.65,125.53Z"/><path class="cls-10" d="M165.31,208.57v.14a114.08,114.08,0,0,0-8.53,15.4C127,217.44,100.4,209,77.9,199.19q11.09-4.8,23.46-9.14c9.55,3.57,19.7,6.91,30.38,10S153.63,206,165.31,208.57Z"/><path class="cls-11" d="M144.71,265.32c-.08.43-.15.87-.22,1.31q-1.32,8.25-1.89,15.82C91.54,269.5,50.92,251.16,26.47,229.61A149.67,149.67,0,0,1,40,219.44h0C64.08,237.87,100.29,253.66,144.71,265.32Z"/></g></g></svg>